<mxfile host="app.diagrams.net" agent="Mozilla/5.0 (Windows NT 10.0; Win64; x64) AppleWebKit/537.36 (KHTML, like Gecko) Chrome/131.0.0.0 Safari/537.36" version="25.0.1">
  <diagram name="Страница — 1" id="j8jYJsmUxcDh0euuu2Y_">
    <mxGraphModel dx="2100" dy="1044" grid="1" gridSize="10" guides="1" tooltips="1" connect="1" arrows="1" fold="1" page="1" pageScale="1" pageWidth="827" pageHeight="1169" math="0" shadow="0">
      <root>
        <mxCell id="0" />
        <mxCell id="1" parent="0" />
        <mxCell id="tyTKvnvGGsQ78eOKiVoi-5" style="edgeStyle=orthogonalEdgeStyle;rounded=0;orthogonalLoop=1;jettySize=auto;html=1;exitX=0.5;exitY=1;exitDx=0;exitDy=0;" parent="1" target="tyTKvnvGGsQ78eOKiVoi-4" edge="1">
          <mxGeometry relative="1" as="geometry">
            <mxPoint x="370" y="120" as="sourcePoint" />
          </mxGeometry>
        </mxCell>
        <mxCell id="tyTKvnvGGsQ78eOKiVoi-7" style="edgeStyle=orthogonalEdgeStyle;rounded=0;orthogonalLoop=1;jettySize=auto;html=1;exitX=0.5;exitY=1;exitDx=0;exitDy=0;" parent="1" source="tyTKvnvGGsQ78eOKiVoi-4" target="tyTKvnvGGsQ78eOKiVoi-6" edge="1">
          <mxGeometry relative="1" as="geometry" />
        </mxCell>
        <mxCell id="tyTKvnvGGsQ78eOKiVoi-4" value="&lt;font style=&quot;font-size: 14px;&quot;&gt;Matrix matrix&lt;/font&gt;" style="rounded=0;whiteSpace=wrap;html=1;" parent="1" vertex="1">
          <mxGeometry x="310" y="150" width="120" height="60" as="geometry" />
        </mxCell>
        <mxCell id="tyTKvnvGGsQ78eOKiVoi-10" style="edgeStyle=orthogonalEdgeStyle;rounded=0;orthogonalLoop=1;jettySize=auto;html=1;exitX=0.5;exitY=1;exitDx=0;exitDy=0;entryX=0.5;entryY=0;entryDx=0;entryDy=0;" parent="1" source="tyTKvnvGGsQ78eOKiVoi-6" target="tyTKvnvGGsQ78eOKiVoi-9" edge="1">
          <mxGeometry relative="1" as="geometry" />
        </mxCell>
        <mxCell id="tyTKvnvGGsQ78eOKiVoi-6" value="&lt;font style=&quot;font-size: 14px;&quot;&gt;matrix.rule = rule&lt;/font&gt;" style="rounded=0;whiteSpace=wrap;html=1;" parent="1" vertex="1">
          <mxGeometry x="310" y="240" width="120" height="60" as="geometry" />
        </mxCell>
        <mxCell id="tyTKvnvGGsQ78eOKiVoi-12" style="edgeStyle=orthogonalEdgeStyle;rounded=0;orthogonalLoop=1;jettySize=auto;html=1;exitX=0.5;exitY=1;exitDx=0;exitDy=0;" parent="1" source="tyTKvnvGGsQ78eOKiVoi-9" target="tyTKvnvGGsQ78eOKiVoi-11" edge="1">
          <mxGeometry relative="1" as="geometry" />
        </mxCell>
        <mxCell id="tyTKvnvGGsQ78eOKiVoi-9" value="&lt;font style=&quot;font-size: 14px;&quot;&gt;int i = 0; i &amp;lt; fact1.fuzzySet.size(); i++&lt;/font&gt;" style="shape=loopLimit;whiteSpace=wrap;html=1;" parent="1" vertex="1">
          <mxGeometry x="252" y="330" width="236" height="60" as="geometry" />
        </mxCell>
        <mxCell id="tyTKvnvGGsQ78eOKiVoi-19" style="edgeStyle=orthogonalEdgeStyle;rounded=0;orthogonalLoop=1;jettySize=auto;html=1;exitX=0.5;exitY=1;exitDx=0;exitDy=0;" parent="1" source="tyTKvnvGGsQ78eOKiVoi-11" target="tyTKvnvGGsQ78eOKiVoi-13" edge="1">
          <mxGeometry relative="1" as="geometry" />
        </mxCell>
        <mxCell id="tyTKvnvGGsQ78eOKiVoi-11" value="&lt;font style=&quot;font-size: 14px;&quot;&gt;int j = 0; j &amp;lt; fact2.fuzzySet.size(); j++&lt;/font&gt;" style="shape=loopLimit;whiteSpace=wrap;html=1;" parent="1" vertex="1">
          <mxGeometry x="252" y="430" width="236" height="60" as="geometry" />
        </mxCell>
        <mxCell id="tyTKvnvGGsQ78eOKiVoi-20" style="edgeStyle=orthogonalEdgeStyle;rounded=0;orthogonalLoop=1;jettySize=auto;html=1;exitX=0.5;exitY=1;exitDx=0;exitDy=0;" parent="1" source="tyTKvnvGGsQ78eOKiVoi-13" target="tyTKvnvGGsQ78eOKiVoi-14" edge="1">
          <mxGeometry relative="1" as="geometry" />
        </mxCell>
        <mxCell id="tyTKvnvGGsQ78eOKiVoi-13" value="&lt;font style=&quot;font-size: 14px;&quot;&gt;matrix.matr[fact1.fuzzySet[i].first].insert({fact2.fuzzySet[j].first, Implication(fact1.fuzzySet[i].second, fact2.fuzzySet[j].second)})&lt;/font&gt;" style="shape=process;whiteSpace=wrap;html=1;backgroundOutline=1;" parent="1" vertex="1">
          <mxGeometry x="102.5" y="530" width="535" height="80" as="geometry" />
        </mxCell>
        <mxCell id="tyTKvnvGGsQ78eOKiVoi-16" style="edgeStyle=orthogonalEdgeStyle;rounded=0;orthogonalLoop=1;jettySize=auto;html=1;exitX=0.5;exitY=0;exitDx=0;exitDy=0;entryX=0.5;entryY=1;entryDx=0;entryDy=0;" parent="1" source="tyTKvnvGGsQ78eOKiVoi-14" target="tyTKvnvGGsQ78eOKiVoi-15" edge="1">
          <mxGeometry relative="1" as="geometry" />
        </mxCell>
        <mxCell id="tyTKvnvGGsQ78eOKiVoi-14" value="&lt;font style=&quot;font-size: 14px;&quot;&gt;int j = 0; j &amp;lt; fact2.fuzzySet.size(); j++&lt;/font&gt;" style="shape=loopLimit;whiteSpace=wrap;html=1;size=20;direction=west;" parent="1" vertex="1">
          <mxGeometry x="252" y="661" width="236" height="60" as="geometry" />
        </mxCell>
        <mxCell id="tyTKvnvGGsQ78eOKiVoi-18" style="edgeStyle=orthogonalEdgeStyle;rounded=0;orthogonalLoop=1;jettySize=auto;html=1;exitX=0.5;exitY=0;exitDx=0;exitDy=0;entryX=0.5;entryY=0;entryDx=0;entryDy=0;" parent="1" source="tyTKvnvGGsQ78eOKiVoi-15" edge="1">
          <mxGeometry relative="1" as="geometry">
            <mxPoint x="370" y="861" as="targetPoint" />
          </mxGeometry>
        </mxCell>
        <mxCell id="tyTKvnvGGsQ78eOKiVoi-15" value="&lt;font style=&quot;font-size: 14px;&quot;&gt;int i = 0; i &amp;lt; fact1.fuzzySet.size(); i++&lt;/font&gt;" style="shape=loopLimit;whiteSpace=wrap;html=1;direction=west;" parent="1" vertex="1">
          <mxGeometry x="252" y="761" width="236" height="60" as="geometry" />
        </mxCell>
        <mxCell id="KI0iTV8n95NVhyMPVvWs-1" value="&lt;span style=&quot;font-size: 14px;&quot;&gt;createMatr(Fact&amp;amp; fact1, Fact&amp;amp; fact2, Rule&amp;amp; rule)&lt;/span&gt;" style="rounded=1;whiteSpace=wrap;html=1;arcSize=50;" vertex="1" parent="1">
          <mxGeometry x="210" y="70" width="320" height="50" as="geometry" />
        </mxCell>
        <mxCell id="KI0iTV8n95NVhyMPVvWs-2" value="&lt;span style=&quot;font-size: 14px;&quot;&gt;return matrix&lt;/span&gt;" style="rounded=1;whiteSpace=wrap;html=1;arcSize=50;" vertex="1" parent="1">
          <mxGeometry x="310" y="860" width="120" height="60" as="geometry" />
        </mxCell>
        <mxCell id="KI0iTV8n95NVhyMPVvWs-3" value="" style="endArrow=none;dashed=1;html=1;dashPattern=1 3;strokeWidth=2;rounded=0;exitX=1;exitY=0.5;exitDx=0;exitDy=0;" edge="1" parent="1" source="KI0iTV8n95NVhyMPVvWs-1">
          <mxGeometry width="50" height="50" relative="1" as="geometry">
            <mxPoint x="560" y="110" as="sourcePoint" />
            <mxPoint x="610" y="95" as="targetPoint" />
          </mxGeometry>
        </mxCell>
        <mxCell id="KI0iTV8n95NVhyMPVvWs-4" value="&lt;font style=&quot;font-size: 14px;&quot;&gt;Метод принимает на вход&amp;nbsp;&lt;/font&gt;&lt;div&gt;&lt;font style=&quot;font-size: 14px;&quot;&gt;два нечетких&amp;nbsp;&lt;/font&gt;&lt;div&gt;&lt;font style=&quot;font-size: 14px;&quot;&gt;множества и правило&amp;nbsp;&lt;/font&gt;&lt;/div&gt;&lt;div&gt;&lt;font style=&quot;font-size: 14px;&quot;&gt;нечеткой&amp;nbsp;&lt;/font&gt;&lt;span style=&quot;font-size: 14px; background-color: initial;&quot;&gt;логики,&amp;nbsp;&lt;/span&gt;&lt;/div&gt;&lt;div&gt;&lt;font style=&quot;font-size: 14px;&quot;&gt;связывающее их; на выход&amp;nbsp;&lt;/font&gt;&lt;/div&gt;&lt;div&gt;&lt;font style=&quot;font-size: 14px;&quot;&gt;объект Matrix,&amp;nbsp;&lt;/font&gt;&lt;span style=&quot;font-size: 14px; background-color: initial;&quot;&gt;содержащий&amp;nbsp;&lt;/span&gt;&lt;/div&gt;&lt;div&gt;&lt;span style=&quot;font-size: 14px; background-color: initial;&quot;&gt;таблицу значений импликации&amp;nbsp;&lt;/span&gt;&lt;/div&gt;&lt;div&gt;&lt;font style=&quot;font-size: 14px;&quot;&gt;для всех пар элементов из двух&amp;nbsp;&lt;/font&gt;&lt;/div&gt;&lt;div&gt;&lt;font style=&quot;font-size: 14px;&quot;&gt;множеств,&amp;nbsp;&lt;/font&gt;&lt;span style=&quot;font-size: 14px; background-color: initial;&quot;&gt;соответствующих правилу&lt;/span&gt;&lt;/div&gt;&lt;/div&gt;" style="strokeWidth=2;html=1;shape=mxgraph.flowchart.annotation_2;align=left;labelPosition=right;pointerEvents=1;" vertex="1" parent="1">
          <mxGeometry x="600" y="45" width="50" height="100" as="geometry" />
        </mxCell>
      </root>
    </mxGraphModel>
  </diagram>
</mxfile>
